<?xml version="1.0" encoding="iso-8859-1"?>
<!-- Generator: Adobe Illustrator 19.0.0, SVG Export Plug-In . SVG Version: 6.00 Build 0)  -->
<svg version="1.1" id="Layer_1" xmlns="http://www.w3.org/2000/svg" xmlns:xlink="http://www.w3.org/1999/xlink" x="0px" y="0px"
	 viewBox="0 0 512 512" style="enable-background:new 0 0 512 512;" xml:space="preserve">
<g>
	<g>
		<g>
			<path d="M256,238.428c65.736,0,119.214-53.48,119.214-119.214C375.214,53.48,321.734,0,256,0S136.786,53.48,136.786,119.214
				C136.785,184.95,190.264,238.428,256,238.428z M256,38.703c44.395,0,80.511,36.118,80.511,80.511
				c0,44.395-36.118,80.511-80.511,80.511s-80.511-36.118-80.511-80.511C175.488,74.821,211.605,38.703,256,38.703z"/>
			<path d="M256,253.693c-97.918,0-177.581,79.662-177.581,177.581v61.375c0,10.687,8.664,19.351,19.351,19.351h316.459
				c10.687,0,19.351-8.664,19.351-19.351v-61.375C433.579,333.356,353.918,253.693,256,253.693z M394.878,473.297h-0.001H275.35
				v-96.635c0-10.687-8.664-19.351-19.351-19.351c-10.687,0-19.352,8.664-19.352,19.351v96.635H117.122v-42.024
				c0-70.011,52.077-128.077,119.526-137.523v24.784c0,10.687,8.664,19.351,19.352,19.351c10.687,0,19.351-8.664,19.351-19.351
				V293.75c67.449,9.446,119.526,67.512,119.526,137.523V473.297z"/>
		</g>
	</g>
</g>
<g>
</g>
<g>
</g>
<g>
</g>
<g>
</g>
<g>
</g>
<g>
</g>
<g>
</g>
<g>
</g>
<g>
</g>
<g>
</g>
<g>
</g>
<g>
</g>
<g>
</g>
<g>
</g>
<g>
</g>
</svg>
